#!OML:ASF E:\motion texture\Top Level 1\Subject 1\Session 1\male.ASF
:FULLY-SPECIFIED
:DEGREES
445
root -29.4538 17.9968 3.97775 166.712 -83.9806 -162.223
lowerback -1.44452 0.345814 1.7202
upperback -1.56507 0.422824 2.04718
thorax -0.79605 0.190911 1.136
lowerneck -14.4283 -4.38446 -5.84582
upperneck 17.0715 -6.06499 6.21781
head 8.03121 -2.7185 2.33424
rclavicle -7.63457e-015 1.59028e-014
rhumerus -76.0826 -41.5841 -29.0601
rradius 11.5275
rwrist 39.1872
rhand -5.07853 -26.8639
rfingers 7.12502
rthumb 20.718 -55.778
lclavicle -7.63457e-015 1.59028e-014
lhumerus -77.9902 42.6671 40.0903
lradius 13.2808
lwrist -57.4498
lhand 13.6172 15.937
lfingers 7.12502
lthumb 38.5485 41.5848
rfemur -20.963 -3.046 20.2943
rtibia 67.9084
rfoot 8.15603 -18.727
rtoes 10.3529
lfemur -8.95439 -3.27333 -21.0186
ltibia 17.0526
lfoot -8.87168 3.80678
ltoes 0.47144
446
root -29.5765 18.0035 3.97714 166.734 -84.3912 -162.264
lowerback -1.39863 0.257396 1.57086
upperback -1.46863 0.306399 2.10365
thorax -0.723151 0.13528 1.27665
lowerneck -14.6816 -4.32723 -5.81407
upperneck 17.2294 -5.92408 5.92115
head 8.10917 -2.6704 2.24327
rclavicle -7.45443e-015 1.39149e-014
rhumerus -75.9882 -40.7058 -30.3957
rradius 11.7064
rwrist 38.1191
rhand -4.6121 -27.1479
rfingers 7.12502
rthumb 21.1661 -56.0125
lclavicle -7.45443e-015 1.39149e-014
lhumerus -78.3353 42.6197 39.1346
lradius 13.1788
lwrist -58.4009
lhand 14.6112 15.7522
lfingers 7.12502
lthumb 39.4856 41.1314
rfemur -22.1208 -3.45918 20.2438
rtibia 68.1703
rfoot 7.26098 -18.6546
rtoes 10.4696
lfemur -8.30898 -3.41701 -21.2666
ltibia 16.6956
lfoot -9.05601 3.62353
ltoes 0.441238
447
root -29.6973 18.0094 3.97598 166.796 -84.8063 -162.322
lowerback -1.35306 0.161736 1.40899
upperback -1.38456 0.180373 2.16678
thorax -0.66188 0.0745548 1.43109
lowerneck -14.9002 -4.2589 -5.78421
upperneck 17.3491 -5.77232 5.6532
head 8.16916 -2.61617 2.16402
rclavicle -1.38652e-014 1.47101e-014
rhumerus -75.3287 -39.6359 -32.5332
rradius 11.981
rwrist 36.5347
rhand -4.1345 -27.2405
rfingers 7.12502
rthumb 21.6248 -56.0529
lclavicle -1.38652e-014 1.47101e-014
lhumerus -78.3878 42.504 38.5013
lradius 13.1228
lwrist -59.1359
lhand 15.4091 15.6226
lfingers 7.12502
lthumb 40.2366 40.7769
rfemur -23.2737 -3.82757 20.1979
rtibia 68.2599
rfoot 6.37518 -18.4278
rtoes 10.6381
lfemur -7.69779 -3.55366 -21.5098
ltibia 16.3472
lfoot -9.2255 3.44011
ltoes 0.41003
448
root -29.8166 18.0144 3.97442 166.809 -85.2278 -162.318
lowerback -1.30024 0.0572584 1.24853
upperback -1.31477 0.0428077 2.23176
thorax -0.618154 0.00768254 1.58663
lowerneck -15.0676 -4.17799 -5.75384
upperneck 17.4195 -5.6126 5.43083
head 8.20496 -2.55552 2.10168
rclavicle 1.1455e-014 -4.77083e-014
rhumerus -74.4551 -38.4799 -34.9438
rradius 12.3077
rwrist 34.7803
rhand -3.64643 -27.1318
rfingers 7.12502
rthumb 22.0935 -55.8896
lclavicle 1.1455e-014 -4.77083e-014
lhumerus -78.1816 42.3213 38.1518
lradius 13.1065
lwrist -59.6474
lhand 15.9335 15.5331
lfingers 7.12502
lthumb 40.7296 40.5349
rfemur -24.4081 -4.16153 20.1606
rtibia 68.1768
rfoot 5.48249 -18.0909
rtoes 10.7535
lfemur -7.11359 -3.68873 -21.7432
ltibia 16.0119
lfoot -9.38904 3.25797
ltoes 0.374674
449
root -29.9343 18.0186 3.97224 166.627 -85.652 -162.116
lowerback -1.22004 -0.0563023 1.09729
upperback -1.26219 -0.106165 2.29937
thorax -0.606104 -0.0652464 1.73984
lowerneck -15.1794 -4.08583 -5.71205
upperneck 17.4435 -5.44803 5.24301
head 8.21622 -2.49005 2.05047
rclavicle 5.81445e-015 -3.97569e-015
rhumerus -73.7692 -37.4312 -36.9342
rradius 12.6022
rwrist 33.3765
rhand -3.18963 -26.7931
rfingers 7.12502
rthumb 22.532 -55.4984
lclavicle 5.81445e-015 -3.97569e-015
lhumerus -77.7888 42.0853 37.9932
lradius 13.117
lwrist -59.9794
lhand 16.1151 15.4663
lfingers 7.12502
lthumb 40.9003 40.4143
rfemur -25.5034 -4.46816 20.1409
rtibia 67.9218
rfoot 4.55529 -17.6967
rtoes 10.771
lfemur -6.54392 -3.82208 -21.9535
ltibia 15.6899
lfoot -9.5485 3.07541
ltoes 0.348269
450
root -30.0506 18.0221 3.96945 166.039 -86.0858 -161.512
lowerback -1.1166 -0.181947 0.965088
upperback -1.21783 -0.27098 2.36884
thorax -0.614074 -0.146392 1.88455
lowerneck -15.2481 -3.98377 -5.65575
upperneck 17.4266 -5.28184 5.0935
head 8.20705 -2.42018 2.01053
rclavicle -1.01877e-015 -1.35174e-014
rhumerus -73.2808 -36.5369 -38.4405
rradius 12.849
rwrist 32.3314
rhand -2.7817 -26.3678
rfingers 7.12502
rthumb 22.9235 -55.0251
lclavicle -1.01877e-015 -1.35174e-014
lhumerus -77.2466 41.8163 37.9683
lradius 13.1451
lwrist -60.16
lhand 15.9338 15.4118
lfingers 7.12502
lthumb 40.7299 40.4134
rfemur -26.5421 -4.75911 20.1427
rtibia 67.4956
rfoot 3.55363 -17.308
rtoes 10.6162
lfemur -5.97924 -3.96029 -22.1324
ltibia 15.3806
lfoot -9.70996 2.88557
ltoes 0.317931
